<svg width="99.61" height="99.61" viewBox="0 0 99.61 99.61"
    xmlns="http://www.w3.org/2000/svg">
    <style>
        .icon {
            fill: #000;
            stroke: #000;
            stroke-width:0.25mm
        }
        @media (prefers-color-scheme: dark) {
        .icon { 
            fill: #fff;
            stroke: #fff;
            }
        }
        @media (prefers-color-scheme: light) {
        .icon {
            fill: #000;
            stroke: #000;
            }
        }
    </style>
    <g id="svgGroup" class="icon" stroke-linecap="round" fill-rule="evenodd">
        <path d="M 92.53 99.61 L 7.129 99.61 A 6.879 6.879 0 0 1 2.158 97.543 A 8.753 8.753 0 0 1 2.124 97.51 A 7.267 7.267 0 0 1 0.566 95.305 A 6.612 6.612 0 0 1 0 92.578 L 0 7.08 A 6.792 6.792 0 0 1 2.035 2.166 A 8.595 8.595 0 0 1 2.1 2.1 Q 4.2 0 7.08 0 L 92.53 0 A 6.792 6.792 0 0 1 97.444 2.035 A 8.595 8.595 0 0 1 97.51 2.1 Q 99.61 4.2 99.61 7.08 L 99.61 92.53 A 6.792 6.792 0 0 1 97.575 97.444 A 8.595 8.595 0 0 1 97.51 97.51 Q 95.41 99.61 92.53 99.61 Z M 49.805 97.657 A 46.7 46.7 0 0 0 68.384 93.946 A 48.202 48.202 0 0 0 83.643 83.643 Q 90.235 77.051 93.946 68.384 A 46.7 46.7 0 0 0 97.657 49.805 A 46.7 46.7 0 0 0 93.946 31.226 A 48.202 48.202 0 0 0 83.643 15.967 Q 77.051 9.375 68.384 5.664 A 46.7 46.7 0 0 0 49.805 1.953 A 46.7 46.7 0 0 0 31.226 5.664 A 48.202 48.202 0 0 0 15.967 15.967 Q 9.375 22.559 5.664 31.226 A 46.7 46.7 0 0 0 1.953 49.805 A 46.7 46.7 0 0 0 5.664 68.384 A 48.202 48.202 0 0 0 15.967 83.643 Q 22.559 90.235 31.226 93.946 A 46.7 46.7 0 0 0 49.805 97.657 Z M 40.064 66.553 A 18.656 18.656 0 0 0 49.805 69.19 A 18.66 18.66 0 0 0 59.522 66.577 A 19.93 19.93 0 0 0 66.553 59.546 A 18.656 18.656 0 0 0 69.19 49.805 A 18.66 18.66 0 0 0 66.577 40.088 A 19.994 19.994 0 0 0 59.571 33.057 A 18.618 18.618 0 0 0 49.805 30.42 A 18.66 18.66 0 0 0 40.088 33.033 A 19.994 19.994 0 0 0 33.057 40.039 A 18.618 18.618 0 0 0 30.42 49.805 A 18.66 18.66 0 0 0 33.033 59.522 A 19.93 19.93 0 0 0 40.064 66.553 Z M 49.805 67.237 A 16.693 16.693 0 0 0 58.545 64.868 Q 62.5 62.5 64.868 58.545 A 16.693 16.693 0 0 0 67.237 49.805 A 16.693 16.693 0 0 0 64.868 41.065 Q 62.5 37.11 58.545 34.742 A 16.693 16.693 0 0 0 49.805 32.373 A 16.693 16.693 0 0 0 41.065 34.742 Q 37.11 37.11 34.742 41.065 A 16.693 16.693 0 0 0 32.373 49.805 A 16.693 16.693 0 0 0 34.742 58.545 Q 37.11 62.5 41.065 64.868 A 16.693 16.693 0 0 0 49.805 67.237 Z M 98.096 57.129 L 75.049 57.129 L 75.049 42.481 L 98.096 42.481 L 98.096 57.129 Z M 44.751 58.545 A 9.775 9.775 0 0 0 49.805 59.912 A 9.736 9.736 0 0 0 54.883 58.545 A 10.323 10.323 0 0 0 58.545 54.859 A 9.775 9.775 0 0 0 59.912 49.805 A 9.736 9.736 0 0 0 58.545 44.727 Q 57.178 42.432 54.883 41.065 A 9.646 9.646 0 0 0 49.854 39.698 A 9.864 9.864 0 0 0 44.751 41.065 Q 42.432 42.432 41.065 44.727 A 9.646 9.646 0 0 0 39.698 49.756 A 9.864 9.864 0 0 0 41.065 54.859 Q 42.432 57.178 44.751 58.545 Z" vector-effect="non-scaling-stroke"/>
    </g>
</svg>